<svg fill="#FAB005" xmlns="http://www.w3.org/2000/svg"  viewBox="0 0 64 64" width="48px" height="48px"><path d="M 23.675781 13.996094 C 23.543037 13.994867 23.408812 14.006828 23.273438 14.033203 C 23.054438 14.076203 14.956281 15.474359 9.3632812 22.193359 C 4.6272813 27.872359 4.2710937 33.497828 3.9960938 37.548828 C 3.9882609 37.663321 3.9984452 37.773342 4.0058594 37.884766 C 4.0053906 37.931378 4 37.97672 4 38.023438 C 4 43.866437 7.8215781 50.877906 17.142578 50.878906 C 24.271578 50.878906 29.759766 45.581437 29.759766 38.023438 C 29.759766 33.038437 27.519453 25.167969 17.439453 25.167969 C 15.460683 25.167969 13.655631 25.516678 12.048828 26.138672 C 12.301493 25.772053 12.566175 25.404196 12.851562 25.035156 C 15.670563 21.397156 20.107047 18.893547 24.123047 17.935547 C 25.158047 17.686547 25.823187 16.665328 25.617188 15.611328 C 25.431687 14.663703 24.60499 14.00468 23.675781 13.996094 z M 53.675781 13.996094 C 53.543037 13.994867 53.408812 14.006828 53.273438 14.033203 C 53.054438 14.076203 44.956281 15.474359 39.363281 22.193359 C 34.627281 27.872359 34.271094 33.497828 33.996094 37.548828 C 33.988261 37.663321 33.998445 37.773342 34.005859 37.884766 C 34.005391 37.931378 34 37.97672 34 38.023438 C 34 43.866437 37.821578 50.877906 47.142578 50.878906 C 54.271578 50.878906 59.759766 45.581437 59.759766 38.023438 C 59.759766 33.038437 57.519453 25.167969 47.439453 25.167969 C 45.460683 25.167969 43.655631 25.516678 42.048828 26.138672 C 42.301493 25.772053 42.566175 25.404196 42.851562 25.035156 C 45.670562 21.397156 50.107047 18.893547 54.123047 17.935547 C 55.158047 17.686547 55.823188 16.665328 55.617188 15.611328 C 55.431688 14.663703 54.60499 14.00468 53.675781 13.996094 z"/></svg>