<svg width="215" height="35" viewBox="0 0 215 35" fill="none" xmlns="http://www.w3.org/2000/svg">
<path d="M54.8671 12.3406L51.6587 5.25994C51.3866 4.66086 50.9169 4.14772 50.3105 3.78702C49.7042 3.42632 48.9891 3.23466 48.2579 3.23689H40.3333V1.61844C40.3333 1.18921 40.1402 0.777548 39.7964 0.474031C39.4525 0.170514 38.9862 0 38.5 0H3.66667C2.69421 0 1.76158 0.341028 1.07394 0.948062C0.386308 1.5551 0 2.37841 0 3.23689V25.8951C0 26.7536 0.386308 27.5769 1.07394 28.1839C1.76158 28.7909 2.69421 29.132 3.66667 29.132H7.5625C7.96638 30.5245 8.88378 31.7588 10.1701 32.6402C11.4564 33.5216 13.0384 34 14.6667 34C16.295 34 17.877 33.5216 19.1633 32.6402C20.4495 31.7588 21.3669 30.5245 21.7708 29.132H33.2292C33.633 30.5245 34.5504 31.7588 35.8367 32.6402C37.123 33.5216 38.705 34 40.3333 34C41.9616 34 43.5436 33.5216 44.8299 32.6402C46.1162 31.7588 47.0336 30.5245 47.4375 29.132H51.3333C52.3058 29.132 53.2384 28.7909 53.9261 28.1839C54.6137 27.5769 55 26.7536 55 25.8951V12.9475C55.0006 12.7396 54.9555 12.5334 54.8671 12.3406ZM40.3333 6.47377H48.2579L50.4579 11.3291H40.3333V6.47377ZM3.66667 3.23689H36.6667V16.1844H3.66667V3.23689ZM14.6667 30.7504C13.9415 30.7504 13.2326 30.5606 12.6296 30.2049C12.0266 29.8492 11.5566 29.3437 11.2791 28.7522C11.0016 28.1608 10.929 27.5099 11.0705 26.882C11.2119 26.2542 11.5611 25.6774 12.0739 25.2247C12.5867 24.772 13.2401 24.4637 13.9513 24.3388C14.6626 24.2139 15.3998 24.278 16.0698 24.523C16.7398 24.768 17.3125 25.1829 17.7154 25.7152C18.1183 26.2475 18.3333 26.8733 18.3333 27.5135C18.3333 28.372 17.947 29.1953 17.2594 29.8024C16.5718 30.4094 15.6391 30.7504 14.6667 30.7504ZM33.2292 25.8951H21.7708C21.3669 24.5026 20.4495 23.2683 19.1633 22.3869C17.877 21.5055 16.295 21.0271 14.6667 21.0271C13.0384 21.0271 11.4564 21.5055 10.1701 22.3869C8.88378 23.2683 7.96638 24.5026 7.5625 25.8951H3.66667V19.4213H36.6667V21.9117C35.8236 22.3419 35.0857 22.9155 34.4956 23.5992C33.9056 24.283 33.4751 25.0634 33.2292 25.8951ZM40.3333 30.7504C39.6081 30.7504 38.8992 30.5606 38.2962 30.2049C37.6933 29.8492 37.2233 29.3437 36.9458 28.7522C36.6682 28.1608 36.5956 27.5099 36.7371 26.882C36.8786 26.2542 37.2278 25.6774 37.7406 25.2247C38.2534 24.772 38.9067 24.4637 39.618 24.3388C40.3293 24.2139 41.0665 24.278 41.7365 24.523C42.4065 24.768 42.9792 25.1829 43.3821 25.7152C43.7849 26.2475 44 26.8733 44 27.5135C44 28.372 43.6137 29.1953 42.9261 29.8024C42.2384 30.4094 41.3058 30.7504 40.3333 30.7504ZM51.3333 25.8951H47.4375C47.0288 24.5059 46.1096 23.2757 44.8241 22.3971C43.5385 21.5185 41.9591 21.0411 40.3333 21.0398V14.566H51.3333V25.8951Z" fill="#1B47E3"/>
<path d="M84.3459 19.024H84.8259L91.8339 0.783998L98.4579 0.975999L98.6499 21.616L99.5619 34H93.0819L93.3219 21.52L92.7939 8.896L87.0339 24.784L81.1299 25.072L75.7539 8.896L75.3219 21.52L75.6579 34H69.7059L70.3779 22.336L70.6659 1.744L78.2979 0.543999L84.3459 19.024ZM103.789 23.968C103.789 19.872 104.893 16.4 107.101 13.552C109.309 10.704 111.885 9.28 114.829 9.28C117.805 9.28 120.109 10.24 121.741 12.16C123.405 14.08 124.237 16.624 124.237 19.792C124.237 24.016 123.165 27.536 121.021 30.352C118.909 33.136 116.237 34.528 113.005 34.528C110.349 34.528 108.141 33.536 106.381 31.552C104.653 29.536 103.789 27.008 103.789 23.968ZM118.861 22.288C118.861 17.648 117.277 15.328 114.109 15.328C110.813 15.328 109.165 17.504 109.165 21.856C109.165 24.128 109.629 25.904 110.557 27.184C111.485 28.464 112.701 29.104 114.205 29.104C115.741 29.104 116.893 28.528 117.661 27.376C118.461 26.192 118.861 24.496 118.861 22.288ZM136.546 28H137.17L138.754 21.424L141.346 9.568L147.298 10.288L143.698 22.192L140.674 33.424L132.466 34.144L129.634 22.48L126.178 10.816L132.706 9.616L134.77 20.176L136.546 28ZM159.104 29.104C160.032 29.104 161.008 28.864 162.032 28.384C163.056 27.904 163.856 27.424 164.432 26.944L165.296 26.224L167.504 28.912C167.184 29.456 166.688 30.08 166.016 30.784C165.344 31.488 164.656 32.096 163.952 32.608C163.28 33.088 162.368 33.536 161.216 33.952C160.096 34.336 158.928 34.528 157.712 34.528C155.12 34.528 153.008 33.552 151.376 31.6C149.744 29.616 148.928 27.072 148.928 23.968C148.928 20.064 150.064 16.64 152.336 13.696C154.608 10.752 157.264 9.28 160.304 9.28C162.64 9.28 164.448 9.936 165.728 11.248C167.04 12.56 167.696 14.4 167.696 16.768C167.696 18.176 167.456 19.776 166.976 21.568L166.016 22.576L154.016 23.68C154.56 27.296 156.256 29.104 159.104 29.104ZM159.104 14.224C157.696 14.224 156.512 14.8 155.552 15.952C154.592 17.072 154.032 18.512 153.872 20.272L162.032 19.264C162.128 18.528 162.176 17.92 162.176 17.44C162.176 15.296 161.152 14.224 159.104 14.224ZM172.942 34L173.518 22.336L172.942 0.879997H190.942L190.414 6.016H179.614L179.326 14.512H188.926L188.398 19.6H179.134L179.086 21.52L179.422 28.912H191.038L190.51 34H172.942ZM209.671 34.48L203.959 25.984L198.055 34.48L193.303 31.84L200.839 22.096L193.687 13.264L199.015 9.616L204.247 17.728L209.911 9.52L214.567 12.4L207.415 21.712L214.999 30.832L209.671 34.48Z" fill="#1B47E3"/>
</svg>
